<svg width="21" height="20" fill="none" xmlns="http://www.w3.org/2000/svg"><path d="M1 5l5-4S1 11.5 1 15" stroke="#1434E1" stroke-width="2" stroke-linecap="round" stroke-linejoin="round"/><path d="M10.436 1c-1.5.5-2.5 3-3 5s-1.092 5 1.5 5c3.592 0 3.092-8 3.092-8m5.408-2c-1.5.5-2.5 3-3 5s-1.092 5 1.5 5c3.592 0 3.092-8 3.092-8M5 15s5-2 11-1" stroke="#1434E1" stroke-width="2" stroke-linecap="round"/><path d="M17 17c-8.5-.898-15 2-15 2" stroke="#1434E1" stroke-width="2" stroke-linecap="round" stroke-linejoin="round"/></svg>